<svg  node-id="1" sillyvg="true" template-height="130" template-width="178" version="1.1" viewBox="0 0 178 130" width="178" xmlns="http://www.w3.org/2000/svg" xmlns:xlink="http://www.w3.org/1999/xlink"><defs node-id="60"><linearGradient gradientUnits="objectBoundingBox" id="linear-gradient" node-id="5" spreadMethod="pad" x1="0.5" x2="0.5" y1="0" y2="1"><stop offset="0" stop-color="#e9e9e9"/><stop offset="1" stop-color="#ffffff" stop-opacity="0"/></linearGradient><linearGradient gradientUnits="objectBoundingBox" id="linearGradient1" node-id="68" spreadMethod="pad" x1="0.5" x2="0.5" y1="0" y2="1"><stop offset="0" stop-color="#dcdcdc"/><stop offset="1" stop-color="#ffffff" stop-opacity="0"/></linearGradient><linearGradient gradientUnits="objectBoundingBox" id="linearGradient2" node-id="75" spreadMethod="pad" x1="0.5" x2="0.5" y1="0" y2="1"><stop offset="0" stop-color="#f1f1f1"/><stop offset="1" stop-color="#ffffff" stop-opacity="0"/></linearGradient><linearGradient gradientUnits="objectBoundingBox" id="linearGradient3" node-id="82" spreadMethod="pad" x1="0.5" x2="0.5" y1="0" y2="1"><stop offset="0" stop-color="#f1f1f1"/><stop offset="1" stop-color="#ffffff" stop-opacity="0"/></linearGradient><linearGradient gradientUnits="objectBoundingBox" id="linear-gradient-5" node-id="14" spreadMethod="pad" x1="0.5" x2="0.5" y1="0" y2="1"><stop offset="0" stop-color="#dedede"/><stop offset="1" stop-color="#ffffff" stop-opacity="0"/></linearGradient><linearGradient gradientUnits="objectBoundingBox" id="linear-gradient-3" node-id="11" spreadMethod="pad" x1="0.5" x2="0.5" y1="0" y2="1"><stop offset="0" stop-color="#f1f1f1"/><stop offset="1" stop-color="#ffffff" stop-opacity="0"/></linearGradient><linearGradient gradientUnits="objectBoundingBox" id="linear-gradient-7" node-id="17" spreadMethod="pad" x1="0.5" x2="0.5" y1="0" y2="1"><stop offset="0" stop-color="#e8e8e8"/><stop offset="1" stop-color="#ffffff" stop-opacity="0"/></linearGradient><linearGradient gradientUnits="objectBoundingBox" id="linear-gradient-2" node-id="8" spreadMethod="pad" x1="0.5" x2="0.5" y1="0" y2="1"><stop offset="0" stop-color="#dcdcdc"/><stop offset="1" stop-color="#ffffff" stop-opacity="0"/></linearGradient><linearGradient gradientUnits="objectBoundingBox" id="linear-gradient-9" node-id="20" spreadMethod="pad" x1="0.213" x2="0.846" y1="1.265" y2="0"><stop offset="0" stop-color="#ffffff"/><stop offset="1" stop-color="#f5f5f5"/></linearGradient><linearGradient gradientUnits="objectBoundingBox" id="linear-gradient-10" node-id="23" spreadMethod="pad" x1="0.5" x2="0.5" y1="0" y2="1"><stop offset="0" stop-color="#c5c5c5"/><stop offset="1" stop-color="#ffffff" stop-opacity="0"/></linearGradient><linearGradient gradientUnits="objectBoundingBox" id="linear-gradient-11" node-id="26" spreadMethod="pad" x1="0.5" x2="0.5" y1="0" y2="1"><stop offset="0" stop-color="#acacac"/><stop offset="1" stop-color="#f2f2f2" stop-opacity="0.388"/></linearGradient><clipPath id="clip-path" node-id="3"><path d="M 0.00 0.00 L 178.00 0.00 L 178.00 130.00 L 0.00 130.00 Z" fill="#000000" fill-rule="nonzero" id="矩形_639" node-id="4" stroke="none" target-height="130" target-width="178" target-x="0" target-y="0"/></clipPath></defs><g node-id="130"><g clip-path="url(#clip-path)" group-id="1" id="组_407" node-id="30"><path d="M 28.50 21.90 L 65.10 11.10 L 65.10 104.90 L 28.50 115.70 Z" fill="url(#linear-gradient)" fill-rule="nonzero" group-id="1,2,4,12" id="路径_82" node-id="33" stroke="none" target-height="104.6" target-width="36.6" target-x="28.5" target-y="11.1"/><path d="M 28.50 21.90 L 10.60 10.80 L 10.60 104.60 L 28.50 115.70 Z" fill="url(#linearGradient1)" fill-rule="nonzero" group-id="1,2,4,13" id="路径_81" node-id="34" stroke="none" target-height="104.899994" target-width="17.9" target-x="10.6" target-y="10.8"/><path d="M 28.50 22.00 L 65.10 11.10 L 47.20 0.00 L 10.60 10.80 Z" fill="url(#linearGradient2)" fill-rule="nonzero" group-id="1,2,4,14" id="路径_80" node-id="35" stroke="none" target-height="22" target-width="54.5" target-x="10.6" target-y="0"/><path d="M 126.20 23.20 L 161.90 12.60 L 161.90 104.20 L 126.20 114.70 Z" fill="url(#linearGradient3)" fill-rule="nonzero" group-id="1,2,5,15" id="路径_78" node-id="37" stroke="none" target-height="102.1" target-width="35.699997" target-x="126.2" target-y="12.6"/><path d="M 126.20 23.20 L 108.70 12.30 L 108.70 103.90 L 126.20 114.70 Z" fill="url(#linear-gradient-5)" fill-rule="nonzero" group-id="1,2,5,16" id="路径_79" node-id="38" stroke="none" target-height="102.399994" target-width="17.5" target-x="108.7" target-y="12.3"/><path d="M 126.20 23.20 L 161.90 12.60 L 144.40 1.70 L 108.70 12.30 Z" fill="url(#linear-gradient-3)" fill-rule="nonzero" group-id="1,2,5,17" id="路径_77" node-id="39" stroke="none" target-height="21.5" target-width="53.199997" target-x="108.7" target-y="1.7"/><path d="M 55.70 49.70 L 86.50 40.60 L 86.50 120.00 L 55.70 129.10 Z" fill="url(#linear-gradient-7)" fill-rule="nonzero" group-id="1,2,6,18" id="路径_74" node-id="41" stroke="none" target-height="88.50001" target-width="30.8" target-x="55.7" target-y="40.6"/><path d="M 55.70 49.70 L 40.60 40.30 L 40.60 119.70 L 55.70 129.10 Z" fill="url(#linear-gradient-2)" fill-rule="nonzero" group-id="1,2,6,19" id="路径_75" node-id="42" stroke="none" target-height="88.8" target-width="15.100002" target-x="40.6" target-y="40.3"/><path d="M 55.70 49.70 L 86.50 40.60 L 71.50 31.20 L 40.60 40.30 Z" fill="url(#linear-gradient-9)" fill-rule="nonzero" group-id="1,2,6,20" id="路径_76" node-id="43" stroke="none" target-height="18.5" target-width="45.9" target-x="40.6" target-y="31.2"/><path d="M 178.00 129.50 L 0.00 129.50 L 1.10 125.70 L 4.00 118.50 L 8.00 111.70 L 10.50 108.60 L 14.80 103.70 L 19.60 99.30 L 24.70 95.30 L 30.20 91.80 L 36.60 88.30 L 43.20 85.20 L 50.10 82.70 L 57.10 80.60 L 65.00 78.80 L 73.00 77.60 L 81.00 76.80 L 89.00 76.50 L 97.00 76.80 L 105.00 77.60 L 113.00 78.80 L 120.90 80.60 L 127.90 82.70 L 134.80 85.20 L 141.40 88.30 L 147.80 91.80 L 153.30 95.30 L 158.40 99.30 L 163.20 103.70 L 167.50 108.60 L 170.00 111.70 L 174.00 118.50 L 176.90 125.70 L 178.00 129.50 Z" fill="url(#linear-gradient-10)" fill-rule="nonzero" group-id="1,2,7" id="减去_26" node-id="44" stroke="none" target-height="53" target-width="178" target-x="0" target-y="76.5"/><path d="M 70.50 88.60 L 69.30 89.80 L 71.60 89.80 L 72.80 88.60 Z" fill="#cbcbcb" fill-rule="nonzero" group-id="1,2,8,21" id="路径_282" node-id="46" stroke="none" target-height="1.2000046" target-width="3.5" target-x="69.3" target-y="88.6"/><path d="M 72.70 83.90 L 71.50 85.10 L 73.80 85.10 L 75.00 83.90 Z" fill="#cbcbcb" fill-rule="nonzero" group-id="1,2,8,22" id="路径_283" node-id="47" stroke="none" target-height="1.199997" target-width="3.5" target-x="71.5" target-y="83.9"/><path d="M 119.30 88.60 L 118.00 89.80 L 120.30 89.80 L 121.50 88.60 Z" fill="#cbcbcb" fill-rule="nonzero" group-id="1,2,8,23" id="路径_278" node-id="48" stroke="none" target-height="1.2000046" target-width="3.5" target-x="118" target-y="88.6"/><path d="M 121.50 83.90 L 120.20 85.10 L 122.50 85.10 L 123.80 83.90 Z" fill="#cbcbcb" fill-rule="nonzero" group-id="1,2,8,24" id="路径_277" node-id="49" stroke="none" target-height="1.199997" target-width="3.600006" target-x="120.2" target-y="83.9"/><path d="M 55.50 80.20 L 65.70 58.20 L 70.10 58.20 L 60.20 80.00 L 75.00 80.00 L 75.00 83.90 L 55.50 83.90 Z M 68.60 70.70 L 72.80 70.70 L 72.80 88.60 L 68.60 88.60 Z M 89.30 88.90 L 86.60 88.60 L 84.50 87.80 L 82.90 86.60 L 81.90 85.20 L 80.70 82.00 L 80.70 66.50 L 81.10 63.10 L 82.90 60.10 L 84.50 58.90 L 86.60 58.10 L 89.30 57.80 L 92.10 58.10 L 94.20 58.90 L 95.80 60.10 L 96.80 61.50 L 97.90 64.70 L 98.00 80.30 L 97.50 83.60 L 95.80 86.60 L 94.20 87.80 L 92.10 88.60 L 89.30 88.90 Z M 89.30 84.80 L 90.60 84.70 L 92.70 83.60 L 93.70 81.50 L 93.70 80.30 L 93.70 65.20 L 92.70 63.10 L 90.60 62.00 L 88.10 62.00 L 86.00 63.10 L 85.40 64.10 L 84.90 66.50 L 85.00 81.50 L 86.00 83.60 L 88.10 84.70 L 89.30 84.80 Z M 104.30 80.20 L 114.40 58.20 L 118.80 58.20 L 108.90 80.00 L 123.80 80.00 L 123.80 83.90 L 104.30 83.90 Z M 117.30 70.70 L 121.50 70.70 L 121.50 88.60 L 117.30 88.60 Z" fill="#c6c6c6" fill-rule="nonzero" group-id="1,2,8,25" id="路径_266" node-id="50" stroke="none" target-height="31.100002" target-width="68.3" target-x="55.5" target-y="57.8"/><path d="M 54.30 81.40 L 64.50 59.50 L 68.90 59.50 L 58.90 81.20 L 73.80 81.20 L 73.80 85.10 L 54.30 85.10 Z M 67.40 71.90 L 71.50 71.90 L 71.50 89.80 L 67.40 89.80 Z M 88.10 90.10 L 85.40 89.80 L 83.30 89.00 L 81.70 87.80 L 80.60 86.40 L 79.50 83.20 L 79.50 67.70 L 79.90 64.30 L 81.70 61.30 L 83.30 60.10 L 85.40 59.30 L 88.10 59.10 L 90.90 59.30 L 93.00 60.10 L 94.60 61.30 L 95.60 62.70 L 96.70 65.90 L 96.80 81.50 L 96.30 84.90 L 94.60 87.80 L 92.90 89.00 L 90.90 89.80 L 88.10 90.10 Z M 88.10 86.00 L 89.30 86.00 L 91.40 84.90 L 92.10 83.80 L 92.50 81.50 L 92.40 66.50 L 91.50 64.30 L 89.30 63.20 L 86.90 63.20 L 84.80 64.30 L 84.10 65.30 L 83.70 67.70 L 83.80 82.70 L 84.80 84.90 L 85.80 85.60 L 88.10 86.00 Z M 103.00 81.40 L 113.20 59.50 L 117.60 59.50 L 107.70 81.20 L 122.60 81.20 L 122.60 85.10 L 103.00 85.10 Z M 116.10 71.90 L 120.30 71.90 L 120.30 89.80 L 116.10 89.80 Z" fill="#b2b2b2" fill-rule="nonzero" group-id="1,2,8,26" id="路径_265" node-id="51" stroke="none" target-height="31" target-width="68.3" target-x="54.3" target-y="59.1"/><path d="M 54.30 95.80 L 64.50 110.30 L 68.90 110.30 L 58.90 96.00 L 73.80 96.00 L 73.80 93.40 L 54.30 93.40 Z M 67.40 102.10 L 71.50 102.10 L 71.50 90.30 L 67.40 90.30 Z M 88.10 90.10 L 85.30 90.30 L 83.20 90.80 L 81.70 91.60 L 80.70 92.40 L 79.60 94.50 L 79.50 104.90 L 80.00 107.30 L 81.70 109.10 L 83.70 110.00 L 85.90 110.50 L 90.90 110.40 L 93.00 109.90 L 95.50 108.30 L 96.70 106.10 L 96.80 95.80 L 96.20 93.40 L 94.60 91.60 L 92.50 90.70 L 90.40 90.20 L 88.10 90.10 Z M 88.10 92.80 L 89.80 92.90 L 91.40 93.50 L 92.30 94.50 L 92.50 95.80 L 92.50 104.90 L 92.30 106.20 L 91.50 107.10 L 89.80 107.80 L 86.40 107.80 L 84.80 107.10 L 84.00 106.20 L 83.70 104.90 L 83.70 95.80 L 84.00 94.50 L 84.80 93.50 L 86.40 92.90 L 88.10 92.80 Z M 103.00 95.80 L 113.20 110.30 L 117.60 110.30 L 107.70 96.00 L 122.60 96.00 L 122.60 93.40 L 103.00 93.40 Z M 116.10 102.10 L 120.30 102.10 L 120.30 90.30 L 116.10 90.30 Z" fill="url(#linear-gradient-11)" fill-opacity="0.32" fill-rule="nonzero" group-id="1,2,8,27" id="路径_264" node-id="52" stroke="none" target-height="20.400002" target-width="68.3" target-x="54.3" target-y="90.1"/><path d="M 114.40 58.20 L 113.20 59.50 L 117.60 59.50 L 118.80 58.20 Z" fill="#e6e6e6" fill-rule="nonzero" group-id="1,3" id="路径_273" node-id="54" stroke="none" target-height="1.2999992" target-width="5.600006" target-x="113.2" target-y="58.2"/><path d="M 58.90 81.20 L 60.20 79.80 L 67.40 79.80 L 67.40 81.20 Z M 67.40 71.90 L 68.60 70.70 L 72.80 70.70 L 71.50 71.90 Z M 64.50 59.50 L 65.70 58.20 L 70.10 58.20 L 68.90 59.50 Z" fill="#e6e6e6" fill-rule="nonzero" group-id="1,3,9" id="联合_56" node-id="55" stroke="none" target-height="22.999996" target-width="13.900002" target-x="58.9" target-y="58.2"/><path d="M 117.40 70.70 L 116.10 72.00 L 120.30 72.00 L 121.50 70.70 Z" fill="#e6e6e6" fill-rule="nonzero" group-id="1,3,10" id="路径_275" node-id="56" stroke="none" target-height="1.300003" target-width="5.4000015" target-x="116.1" target-y="70.7"/><path d="M 121.50 79.90 L 120.20 81.20 L 122.50 81.20 L 123.70 79.90 Z" fill="#e6e6e6" fill-rule="nonzero" group-id="1,3,11" id="路径_276" node-id="57" stroke="none" target-height="1.2999954" target-width="3.5" target-x="120.2" target-y="79.9"/><path d="M 108.80 79.80 L 107.60 81.30 L 116.10 81.30 L 116.10 79.80 Z" fill="#e6e6e6" fill-rule="nonzero" group-id="1,3" id="路径_274" node-id="58" stroke="none" target-height="1.5" target-width="8.5" target-x="107.6" target-y="79.8"/></g></g></svg>